<svg width="60" height="60" viewBox="0 0 60 60" fill="none" xmlns="http://www.w3.org/2000/svg">
<circle cx="30" cy="30" r="30" fill="#565680"/>
<path d="M22.7218 29.616C23.1378 29.488 23.6258 29.256 24.1858 28.92C24.6658 29.48 24.9138 30.112 24.9298 30.816C24.3218 31.12 23.4978 31.424 22.4578 31.728C22.2658 33.184 22.1698 34.28 22.1698 35.016C22.1698 35.752 22.2978 36.12 22.5538 36.12C22.9538 36.12 23.4578 35.76 24.0658 35.04C24.6738 34.32 25.2498 33.328 25.7938 32.064C26.3378 30.8 26.6738 29.528 26.8018 28.248C26.8018 26.68 26.1218 25.216 24.7618 23.856C25.1138 23.168 25.5698 22.544 26.1298 21.984C26.7058 21.424 27.1858 21.032 27.5698 20.808L28.1458 20.496C28.8658 20.496 29.4818 20.912 29.9938 21.744C30.5218 22.56 30.7858 23.56 30.7858 24.744C30.7858 25.912 30.4498 27.368 29.7778 29.112C29.1058 30.856 28.2738 32.472 27.2818 33.96C26.2898 35.448 25.1698 36.712 23.9218 37.752C22.6738 38.776 21.4978 39.288 20.3938 39.288C19.2898 39.288 18.5218 38.968 18.0898 38.328C17.6738 37.688 17.4658 36.8 17.4658 35.664C17.4658 35.104 17.5538 33.856 17.7298 31.92C16.2578 31.84 15.0898 31.344 14.2258 30.432C13.3618 29.504 12.9298 28.456 12.9298 27.288C12.9298 25.784 13.6098 24.52 14.9698 23.496C16.3298 22.472 17.7778 21.96 19.3138 21.96C20.4018 21.96 21.2978 22.312 22.0018 23.016C22.7058 23.704 23.0578 24.776 23.0578 26.232C23.0578 26.824 22.9458 27.952 22.7218 29.616ZM18.2818 26.352C18.2818 24.912 17.9058 24.192 17.1538 24.192C16.6418 24.192 16.1298 24.504 15.6178 25.128C15.1218 25.752 14.8738 26.472 14.8738 27.288C14.8738 28.104 15.1618 28.76 15.7378 29.256C16.3298 29.736 17.0658 29.976 17.9458 29.976C18.1698 28.216 18.2818 27.008 18.2818 26.352ZM47.1412 23.688C47.1412 24.92 46.6212 26.152 45.5812 27.384C44.5572 28.616 43.2052 29.744 41.5252 30.768C41.8932 31.184 42.3412 32.064 42.8692 33.408C43.3972 34.752 43.7892 35.696 44.0452 36.24C44.3012 36.784 44.4932 37.2 44.6212 37.488C44.7652 37.776 44.9652 38.16 45.2212 38.64C45.6692 39.488 46.0612 39.912 46.3972 39.912C46.5732 39.912 46.7252 39.88 46.8532 39.816L47.3092 41.088C46.4452 41.728 45.3972 42.048 44.1652 42.048C42.9332 42.048 42.0612 41.792 41.5492 41.28C41.0532 40.784 40.6212 39.728 40.2532 38.112C40.2372 38.048 40.0692 37.2 39.7492 35.568C39.4292 33.936 39.1652 32.816 38.9572 32.208H38.7892C38.3732 32.208 38.0212 32.04 37.7332 31.704C37.6052 31.608 37.5412 31.36 37.5412 30.96C37.5412 30.544 37.5652 30.248 37.6132 30.072C37.6772 29.88 37.8212 29.72 38.0452 29.592C38.2692 29.464 38.5492 29.4 38.8852 29.4C39.2372 29.4 39.5412 29.464 39.7972 29.592C40.6292 28.92 41.3012 28.224 41.8132 27.504C42.2292 26.752 42.4372 25.888 42.4372 24.912C42.4372 24.448 42.3892 23.968 42.2932 23.472C42.9332 23.088 43.5812 22.792 44.2372 22.584C44.9092 22.36 45.4132 22.232 45.7492 22.2L46.2532 22.152C46.5092 22.264 46.7172 22.48 46.8772 22.8C47.0532 23.104 47.1412 23.4 47.1412 23.688ZM33.6772 24.216C33.6772 23.96 33.6372 23.768 33.5572 23.64C33.4932 23.496 33.3572 23.304 33.1492 23.064V22.728C33.4692 22.536 33.9812 22.368 34.6852 22.224C35.4052 22.064 36.0372 21.984 36.5812 21.984C37.3012 21.984 37.8772 22.024 38.3092 22.104C38.4052 22.28 38.4532 22.528 38.4532 22.848C38.4532 24.112 37.9812 26.712 37.0372 30.648C36.1092 34.568 35.5812 37.264 35.4532 38.736C34.2692 39.008 32.9572 39.144 31.5172 39.144C31.1652 39.144 30.9172 39.12 30.7732 39.072C30.8532 38.064 31.3572 35.6 32.2852 31.68C33.2132 27.76 33.6772 25.272 33.6772 24.216Z" fill="white"/>
</svg>
